<?xml version="1.0" encoding="UTF-8" standalone="no"?>
<!DOCTYPE svg PUBLIC "-//W3C//DTD SVG 1.1//EN" "http://www.w3.org/Graphics/SVG/1.1/DTD/svg11.dtd">
<svg width="100%" height="100%" viewBox="0 0 250 250" version="1.1" xmlns="http://www.w3.org/2000/svg" xmlns:xlink="http://www.w3.org/1999/xlink" xml:space="preserve" xmlns:serif="http://www.serif.com/" style="fill-rule:evenodd;clip-rule:evenodd;stroke-linecap:round;stroke-linejoin:round;stroke-miterlimit:1.5;">
    <g transform="matrix(1,0,0,1,-914.033,-341.531)">
        <g transform="matrix(1,0,0,1,324.033,295.531)">
            <rect x="590" y="46" width="250" height="250" style="fill:white;"/>
        </g>
        <g transform="matrix(1,0,0,1,439.948,-145.425)">
            <g transform="matrix(0.808255,0,0,0.808255,137.786,95.4813)">
                <path d="M521,653L566.5,648L616.236,656L616.236,669L575.049,678L607.777,684.655L640,683L673,670L679,683L614.042,717L533,705L516,713L521,653Z" style="fill:none;stroke:rgb(26,26,26);stroke-width:9.28px;"/>
            </g>
            <g transform="matrix(0.808255,0,0,0.808255,139.402,95.4813)">
                <path d="M506,653L500,712L454,717L466,648L506,653Z" style="fill:none;stroke:rgb(26,26,26);stroke-width:9.28px;"/>
            </g>
            <g transform="matrix(0.808255,0,0,0.808255,170.924,97.9061)">
                <rect x="506" y="558" width="138.471" height="64" style="fill:none;stroke:rgb(26,26,26);stroke-width:9.28px;"/>
            </g>
            <g transform="matrix(1,0,0,1,-273.002,12.2819)">
                <path d="M908.019,578.42L908.019,575.256C906.437,575.057 905.151,574.703 904.161,574.193C903.17,573.683 902.315,572.86 901.594,571.723C900.873,570.586 900.454,569.198 900.337,567.557L903.519,566.959C903.765,568.659 904.199,569.907 904.82,570.703C905.71,571.828 906.777,572.455 908.019,572.584L908.019,562.512C906.718,562.266 905.388,561.762 904.029,561C903.021,560.438 902.244,559.659 901.7,558.662C901.155,557.666 900.882,556.536 900.882,555.27C900.882,553.02 901.679,551.198 903.273,549.803C904.339,548.866 905.921,548.291 908.019,548.08L908.019,546.569L909.882,546.569L909.882,548.08C911.722,548.256 913.181,548.795 914.259,549.698C915.642,550.846 916.474,552.422 916.755,554.426L913.486,554.918C913.298,553.676 912.909,552.724 912.317,552.062C911.725,551.4 910.913,550.963 909.882,550.752L909.882,559.875C911.476,560.274 912.531,560.584 913.046,560.807C914.031,561.241 914.833,561.768 915.454,562.389C916.076,563.01 916.553,563.748 916.887,564.604C917.221,565.459 917.388,566.385 917.388,567.381C917.388,569.573 916.691,571.401 915.296,572.866C913.902,574.33 912.097,575.116 909.882,575.221L909.882,578.42L908.019,578.42ZM908.019,550.717C906.788,550.905 905.819,551.397 905.11,552.194C904.401,552.991 904.046,553.934 904.046,555.024C904.046,556.102 904.348,557.004 904.952,557.731C905.555,558.457 906.578,559.037 908.019,559.471L908.019,550.717ZM909.882,572.584C911.113,572.432 912.129,571.899 912.932,570.985C913.735,570.071 914.136,568.94 914.136,567.592C914.136,566.444 913.852,565.521 913.284,564.824C912.715,564.126 911.581,563.502 909.882,562.952L909.882,572.584Z" style="fill-rule:nonzero;stroke:rgb(26,26,26);stroke-width:2px;stroke-linecap:butt;stroke-miterlimit:1.41421;"/>
            </g>
            <g transform="matrix(1,0,0,1,-2,-1)">
                <path d="M585,558.851L591,553" style="fill:none;stroke:rgb(26,26,26);stroke-width:7.5px;"/>
            </g>
            <g transform="matrix(1,0,0,1,98.0278,38.7796)">
                <path d="M585,558.851L591,553" style="fill:none;stroke:rgb(26,26,26);stroke-width:7.5px;"/>
            </g>
            <g transform="matrix(-1,0,0,1,1274.03,0)">
                <path d="M585,558.851L591,553" style="fill:none;stroke:rgb(26,26,26);stroke-width:7.5px;"/>
            </g>
            <g transform="matrix(-1,0,0,1,1173.66,37.7375)">
                <path d="M585,558.851L591,553" style="fill:none;stroke:rgb(26,26,26);stroke-width:7.5px;"/>
            </g>
        </g>
    </g>
</svg>
