<?xml version="1.0" encoding="UTF-8" standalone="no"?>
<!DOCTYPE svg PUBLIC "-//W3C//DTD SVG 1.1//EN" "http://www.w3.org/Graphics/SVG/1.1/DTD/svg11.dtd">
<svg width="100%" height="100%" viewBox="0 0 250 250" version="1.1" xmlns="http://www.w3.org/2000/svg" xmlns:xlink="http://www.w3.org/1999/xlink" xml:space="preserve" xmlns:serif="http://www.serif.com/" style="fill-rule:evenodd;clip-rule:evenodd;stroke-linecap:round;stroke-linejoin:round;stroke-miterlimit:1.5;">
    <g transform="matrix(1,0,0,1,-911.997,-25.4984)">
        <g transform="matrix(1,0,0,1,321.997,-20.5016)">
            <rect x="590" y="46" width="250" height="250" style="fill:white;"/>
        </g>
        <g transform="matrix(2.22538,0,0,2.22538,-946.231,-912.376)">
            <g transform="matrix(0.468464,0,0,0.468464,618.325,272.922)">
                <path d="M524.389,383.863L543.179,384.154L546.472,402.427L641.101,402.399L627.858,461.765L523.229,461.742" style="fill:none;stroke:rgb(26,26,26);stroke-width:7.19px;"/>
            </g>
            <g transform="matrix(0.468464,0,0,0.468464,620.561,269.987)">
                <path d="M544.493,423.581L590.74,423.3" style="fill:none;stroke:rgb(26,26,26);stroke-width:7.19px;"/>
            </g>
            <g transform="matrix(0.468464,0,0,0.468464,616.438,277.116)">
                <path d="M544.493,423.581L590.74,423.3" style="fill:none;stroke:rgb(26,26,26);stroke-width:7.19px;"/>
            </g>
            <g transform="matrix(0.468464,0,0,0.468464,611.803,283.782)">
                <path d="M544.493,423.581L590.74,423.3" style="fill:none;stroke:rgb(26,26,26);stroke-width:7.19px;"/>
            </g>
            <g transform="matrix(0.580649,0,0,0.580649,551.612,209.972)">
                <circle cx="566.104" cy="499.713" r="9.012" style="fill:none;stroke:rgb(26,26,26);stroke-width:5.8px;"/>
            </g>
            <g transform="matrix(0.580649,0,0,0.580649,584.992,209.972)">
                <circle cx="566.104" cy="499.713" r="9.012" style="fill:none;stroke:rgb(26,26,26);stroke-width:5.8px;"/>
            </g>
        </g>
    </g>
</svg>
