<?xml version="1.0" encoding="UTF-8" standalone="no"?>
<!DOCTYPE svg PUBLIC "-//W3C//DTD SVG 1.1//EN" "http://www.w3.org/Graphics/SVG/1.1/DTD/svg11.dtd">
<svg width="100%" height="100%" viewBox="0 0 250 250" version="1.1" xmlns="http://www.w3.org/2000/svg" xmlns:xlink="http://www.w3.org/1999/xlink" xml:space="preserve" xmlns:serif="http://www.serif.com/" style="fill-rule:evenodd;clip-rule:evenodd;stroke-linejoin:round;stroke-miterlimit:1.41421;">
    <g transform="matrix(1,0,0,1,-1449.06,-400)">
        <g transform="matrix(1,0,0,1,859.059,354)">
            <rect x="590" y="46" width="250" height="250" style="fill:white;"/>
        </g>
        <g transform="matrix(3.19218,0,0,3.19218,-3159.95,-111.271)">
            <g id="stopwatch" transform="matrix(1,0,0,1,1483,199.321)">
                <g>
                    <g id="stopwatch1" serif:id="stopwatch" transform="matrix(1,0,0,1,-30,-30)">
                        <g transform="matrix(1,0,0,1,1.792,0)">
                            <g transform="matrix(0.171086,0.985256,-0.985256,0.171086,59.336,-7.15943)">
                                <path d="M31.634,37.989C32.675,37.908 33.624,37.377 34.24,36.53L43.603,23.586C43.89,23.189 43.847,22.641 43.499,22.293C43.151,21.946 42.603,21.903 42.206,22.189L29.26,31.555C28.416,32.169 27.885,33.118 27.804,34.159C27.723,35.2 28.1,36.219 28.837,36.956C29.508,37.628 30.413,38 31.354,38C31.447,38 31.54,37.996 31.634,37.989Z" style="fill:rgb(26,26,26);fill-rule:nonzero;"/>
                            </g>
                            <g transform="matrix(1,0,0,1,-1,-2)">
                                <path d="M54.034,19.564C54.024,19.543 54.024,19.521 54.013,19.5C54.001,19.48 53.982,19.469 53.969,19.45C52.958,17.716 51.762,16.103 50.404,14.641L48.99,13.227C47.528,11.869 45.916,10.672 44.181,9.661C44.162,9.648 44.151,9.629 44.131,9.617C44.11,9.605 44.088,9.606 44.067,9.595C40.974,7.813 37.499,6.626 33.794,6.191C33.794,6.191 31.715,6.05 30.715,6.044C29.74,6.038 27.793,6.156 27.793,6.156C26.713,6.271 25.635,6.447 24.569,6.691C24.031,6.814 23.694,7.351 23.818,7.889C23.941,8.427 24.478,8.765 25.016,8.64C25.936,8.429 26.865,8.27 27.796,8.163L28.869,8.08C29.197,8.055 29.499,8.037 29.793,8.023L29.793,10C29.793,10.553 30.24,11 30.793,11C31.346,11 31.793,10.553 31.793,10L31.793,8.03C35.554,8.203 39.098,9.213 42.249,10.875L41.263,12.582C40.987,13.061 41.151,13.672 41.629,13.948C41.786,14.039 41.958,14.082 42.128,14.082C42.474,14.082 42.81,13.903 42.995,13.582L43.978,11.879C47.107,13.864 49.765,16.522 51.75,19.651L50.047,20.634C49.57,20.91 49.406,21.521 49.683,22C49.869,22.321 50.204,22.5 50.55,22.5C50.72,22.5 50.892,22.457 51.049,22.366L52.756,21.38C54.441,24.576 55.454,28.178 55.605,31.999L53.63,31.999C53.077,31.999 52.63,32.446 52.63,32.999C52.63,33.552 53.077,33.999 53.63,33.999L55.605,33.999C55.454,37.82 54.441,41.422 52.756,44.618L51.049,43.632C50.571,43.356 49.959,43.518 49.683,43.998C49.407,44.477 49.571,45.088 50.049,45.364L51.752,46.347C49.767,49.476 47.109,52.134 43.98,54.119L42.997,52.416C42.72,51.936 42.107,51.773 41.631,52.05C41.152,52.326 40.988,52.938 41.265,53.416L42.251,55.123C39.1,56.785 35.556,57.795 31.795,57.968L31.795,56C31.795,55.447 31.348,55 30.795,55C30.242,55 29.795,55.447 29.795,56L29.795,57.976C28.198,57.921 26.596,57.721 25.019,57.359C24.481,57.23 23.944,57.572 23.821,58.11C23.697,58.648 24.034,59.185 24.572,59.308C26.568,59.768 28.607,60 30.63,60C30.679,60 30.726,59.997 30.775,59.996C30.782,59.996 30.787,60 30.793,60C30.801,60 30.808,59.995 30.816,59.995C35.623,59.962 40.133,58.664 44.035,56.422C44.066,56.408 44.099,56.401 44.129,56.383C44.149,56.371 44.16,56.352 44.179,56.339C48.218,53.985 51.593,50.614 53.952,46.578C53.971,46.551 53.995,46.53 54.012,46.5C54.024,46.479 54.023,46.457 54.033,46.436C56.317,42.476 57.63,37.89 57.63,33C57.63,28.11 56.317,23.524 54.034,19.564Z" style="fill:rgb(26,26,26);fill-rule:nonzero;"/>
                            </g>
                            <g transform="matrix(1.14286,0,0,1,-7.25614,-2)">
                                <path d="M21.793,14L16.793,14C16.24,14 15.793,14.447 15.793,15C15.793,15.553 16.24,16 16.793,16L21.793,16C22.346,16 22.793,15.553 22.793,15C22.793,14.447 22.346,14 21.793,14Z" style="fill:rgb(26,26,26);fill-rule:nonzero;"/>
                            </g>
                            <g transform="matrix(0.916667,0,0,1,-2.10058,-0.25)">
                                <path d="M21.793,21L11.793,21C11.24,21 10.793,21.447 10.793,22C10.793,22.553 11.24,23 11.793,23L21.793,23C22.346,23 22.793,22.553 22.793,22C22.793,21.447 22.346,21 21.793,21Z" style="fill:rgb(26,26,26);fill-rule:nonzero;"/>
                            </g>
                            <g transform="matrix(0.904762,0,0,1,-1.82924,-5.5)">
                                <path d="M21.793,35L2.793,35C2.24,35 1.793,35.447 1.793,36C1.793,36.553 2.24,37 2.793,37L21.793,37C22.346,37 22.793,36.553 22.793,36C22.793,35.447 22.346,35 21.793,35Z" style="fill:rgb(26,26,26);fill-rule:nonzero;"/>
                            </g>
                            <g transform="matrix(0.933333,0,0,1,-2.48047,-3.75)">
                                <path d="M21.793,42L8.793,42C8.24,42 7.793,42.447 7.793,43C7.793,43.553 8.24,44 8.793,44L21.793,44C22.346,44 22.793,43.553 22.793,43C22.793,42.447 22.346,42 21.793,42Z" style="fill:rgb(26,26,26);fill-rule:nonzero;"/>
                            </g>
                            <g transform="matrix(0.888889,0,0,1,-1.46744,-2)">
                                <path d="M21.793,49L14.793,49C14.24,49 13.793,49.447 13.793,50C13.793,50.553 14.24,51 14.793,51L21.793,51C22.346,51 22.793,50.553 22.793,50C22.793,49.447 22.346,49 21.793,49Z" style="fill:rgb(26,26,26);fill-rule:nonzero;"/>
                            </g>
                        </g>
                    </g>
                </g>
            </g>
        </g>
    </g>
</svg>
