<?xml version="1.0" encoding="UTF-8" standalone="no"?>
<!DOCTYPE svg PUBLIC "-//W3C//DTD SVG 1.1//EN" "http://www.w3.org/Graphics/SVG/1.1/DTD/svg11.dtd">
<svg width="100%" height="100%" viewBox="0 0 250 250" version="1.1" xmlns="http://www.w3.org/2000/svg" xmlns:xlink="http://www.w3.org/1999/xlink" xml:space="preserve" xmlns:serif="http://www.serif.com/" style="fill-rule:evenodd;clip-rule:evenodd;stroke-linecap:round;stroke-miterlimit:1.5;">
    <g transform="matrix(1,0,0,1,-1449.06,-400)">
        <g transform="matrix(1,0,0,1,859.059,354)">
            <rect x="590" y="46" width="250" height="250" style="fill:white;"/>
        </g>
        <g transform="matrix(0.639451,0,0,0.639451,408.188,234.021)">
            <g>
                <g transform="matrix(1,0,0,1,-64.1808,-70.3215)">
                    <circle cx="1880.82" cy="508.5" r="127.5" style="fill:none;stroke:rgb(26,26,26);stroke-width:11.73px;"/>
                </g>
                <g transform="matrix(0.532142,0,0,1,815.775,-70.3215)">
                    <circle cx="1880.82" cy="508.5" r="127.5" style="fill:none;stroke:rgb(26,26,26);stroke-width:14.64px;"/>
                </g>
                <g transform="matrix(3.25843e-17,0.532142,-1,6.12323e-17,2325.14,-562.685)">
                    <circle cx="1880.82" cy="508.5" r="127.5" style="fill:none;stroke:rgb(26,26,26);stroke-width:14.64px;"/>
                </g>
                <path d="M1816.64,310.679L1816.64,565.679" style="fill:none;stroke:rgb(26,26,26);stroke-width:11.73px;"/>
                <path d="M1689.14,438.179L1944.14,438.179" style="fill:none;stroke:rgb(26,26,26);stroke-width:11.73px;"/>
            </g>
            <g transform="matrix(1.00436,0,0,1.00436,-49.7746,-91.5853)">
                <g transform="matrix(1,0,0,1,-12,-27.2628)">
                    <path d="M2001.41,581.418L2002.17,581.42L2002.92,581.424L2003.65,581.43L2004.38,581.436L2005.11,581.444L2005.82,581.453L2006.52,581.463L2007.22,581.474L2008.57,581.499L2009.89,581.528L2011.17,581.561L2012.41,581.597L2013.6,581.635L2014.75,581.675L2015.86,581.718L2016.92,581.762L2017.94,581.807L2018.91,581.852L2019.83,581.898L2020.7,581.944L2021.51,581.99L2022.28,582.034L2022.99,582.078L2023.65,582.12L2024.26,582.16L2024.81,582.198L2025.73,582.264L2026.41,582.316L2026.84,582.351L2039.14,583.405L2037.54,595.827L2037.49,596.214L2037.43,596.596L2037.37,596.979L2037.31,597.363L2037.25,597.747L2037.18,598.132L2037.11,598.518L2037.04,598.904L2036.96,599.291L2036.88,599.679L2036.8,600.063L2036.72,600.448L2036.63,600.838L2036.54,601.229L2036.45,601.616L2036.35,602.004L2036.26,602.393L2036.16,602.783L2036.06,603.174L2035.95,603.566L2035.84,603.958L2035.73,604.348L2035.62,604.742L2035.51,605.138L2035.39,605.533L2035.27,605.927L2035.15,606.321L2035.02,606.72L2034.9,607.116L2034.77,607.514L2034.64,607.912L2034.5,608.311L2034.37,608.711L2034.23,609.112L2034.09,609.513L2033.95,609.917L2033.8,610.317L2033.65,610.718L2033.51,611.124L2033.35,611.531L2033.2,611.932L2033.05,612.337L2032.88,612.75L2032.73,613.158L2032.56,613.563L2032.4,613.972L2032.23,614.383L2032.06,614.794L2031.89,615.203L2031.72,615.616L2031.54,616.03L2031.37,616.442L2031.19,616.855L2031.01,617.272L2030.82,617.687L2030.64,618.103L2030.45,618.522L2030.26,618.937L2030.07,619.356L2029.88,619.775L2029.68,620.196L2029.48,620.617L2029.28,621.036L2029.08,621.459L2028.88,621.88L2028.67,622.302L2028.47,622.728L2028.26,623.154L2028.05,623.579L2027.83,624.001L2027.62,624.428L2027.4,624.857L2027.18,625.285L2026.96,625.711L2026.74,626.141L2026.52,626.568L2026.29,626.999L2026.06,627.431L2025.83,627.861L2025.6,628.292L2025.37,628.723L2025.13,629.158L2024.89,629.59L2024.66,630.022L2024.42,630.458L2024.17,630.893L2023.93,631.327L2023.68,631.763L2023.44,632.2L2023.19,632.637L2022.94,633.073L2022.68,633.51L2022.43,633.947L2022.17,634.387L2021.91,634.825L2021.65,635.264L2021.39,635.706L2021.13,636.144L2020.86,636.589L2020.33,637.466L2019.79,638.349L2019.24,639.233L2018.69,640.119L2018.13,641.005L2017.56,641.893L2016.99,642.782L2016.41,643.671L2015.83,644.56L2015.24,645.452L2014.64,646.343L2014.04,647.234L2013.43,648.127L2012.82,649.019L2012.19,649.912L2011.57,650.804L2010.94,651.696L2010.3,652.588L2009.66,653.481L2009.01,654.373L2008.36,655.263L2007.7,656.155L2007.04,657.046L2006.37,657.934L2005.7,658.823L2005.02,659.71L2004.34,660.598L2003.65,661.484L2002.96,662.367L2002.26,663.25L2001.56,664.132L2000.85,665.012L2000.14,665.89L1999.42,666.767L1998.7,667.641L1997.98,668.514L1997.25,669.384L1996.52,670.253L1995.78,671.119L1995.04,671.983L1994.29,672.844L1993.54,673.702L1992.79,674.559L1992.03,675.412L1991.28,676.262L1990.51,677.109L1989.74,677.954L1988.97,678.794L1988.2,679.626L1987.81,680.05L1987.42,680.466L1987.03,680.88L1986.64,681.296L1986.24,681.71L1985.85,682.123L1985.46,682.535L1985.06,682.945L1984.67,683.356L1984.27,683.765L1983.88,684.173L1983.48,684.579L1983.08,684.986L1982.68,685.392L1982.28,685.796L1981.88,686.197L1981.48,686.6L1981.08,687.001L1980.67,687.401L1980.27,687.8L1979.86,688.196L1979.46,688.593L1979.05,688.988L1978.65,689.382L1978.24,689.775L1977.83,690.166L1977.42,690.556L1977.02,690.944L1976.6,691.334L1976.19,691.72L1975.78,692.105L1975.37,692.49L1974.96,692.873L1974.54,693.254L1974.13,693.633L1973.72,694.013L1973.3,694.391L1972.89,694.766L1972.47,695.141L1972.05,695.515L1971.63,695.887L1971.22,696.257L1970.8,696.626L1970.38,696.994L1969.96,697.36L1969.54,697.725L1969.12,698.089L1968.7,698.451L1968.28,698.81L1967.86,699.168L1967.43,699.527L1967.01,699.883L1966.59,700.235L1966.16,700.589L1965.74,700.94L1965.31,701.289L1964.88,701.636L1964.46,701.983L1964.03,702.328L1963.6,702.67L1963.18,703.012L1962.75,703.351L1962.32,703.688L1961.89,704.024L1961.46,704.359L1961.03,704.692L1960.6,705.021L1960.17,705.351L1959.74,705.679L1959.31,706.004L1958.87,706.328L1958.44,706.65L1958.01,706.969L1957.58,707.287L1957.14,707.604L1956.71,707.917L1956.27,708.23L1955.84,708.541L1955.4,708.85L1954.97,709.156L1954.53,709.46L1954.09,709.763L1953.66,710.064L1953.22,710.363L1952.78,710.66L1952.34,710.954L1951.9,711.248L1951.47,711.539L1951.03,711.826L1950.59,712.112L1950.15,712.397L1949.71,712.679L1949.27,712.959L1948.83,713.238L1948.38,713.514L1947.94,713.787L1947.5,714.058L1947.06,714.327L1946.62,714.594L1946.17,714.859L1945.73,715.122L1945.29,715.381L1944.84,715.639L1944.4,715.896L1943.95,716.149L1943.51,716.399L1943.06,716.647L1942.62,716.894L1942.17,717.138L1941.72,717.378L1941.28,717.618L1940.83,717.854L1940.38,718.088L1939.93,718.32L1939.49,718.549L1939.04,718.775L1938.59,718.999L1938.14,719.221L1937.69,719.44L1937.24,719.656L1936.79,719.869L1936.34,720.08L1935.89,720.288L1935.44,720.494L1934.99,720.697L1934.54,720.897L1934.08,721.095L1933.63,721.29L1933.18,721.481L1932.72,721.671L1932.27,721.857L1931.82,722.04L1931.36,722.221L1930.9,722.399L1930.45,722.573L1930,722.745L1929.54,722.914L1929.08,723.079L1928.63,723.242L1928.17,723.402L1927.71,723.559L1927.25,723.712L1926.8,723.863L1926.34,724.01L1925.88,724.154L1925.42,724.295L1924.96,724.433L1924.5,724.567L1924.04,724.699L1923.58,724.826L1923.11,724.951L1922.65,725.072L1922.19,725.189L1921.73,725.303L1921.26,725.414L1920.8,725.521L1920.33,725.625L1919.87,725.724L1919.41,725.821L1918.94,725.913L1918.47,726.002L1918.01,726.088L1917.54,726.169L1917.07,726.246L1916.61,726.32L1916.14,726.39L1915.67,726.456L1915.2,726.517L1914.73,726.575L1914.26,726.629L1913.79,726.679L1913.32,726.724L1912.85,726.765L1912.38,726.802L1911.91,726.835L1911.44,726.864L1910.97,726.888L1910.5,726.907L1910.03,726.923L1909.55,726.933L1909.08,726.939L1908.61,726.941L1908.14,726.938L1907.66,726.93L1907.19,726.917L1906.72,726.9L1906.25,726.878L1905.77,726.851L1905.3,726.819L1904.83,726.782L1904.35,726.74L1903.88,726.693L1903.41,726.641L1902.94,726.583L1902.47,726.521L1901.99,726.453L1901.52,726.381L1901.05,726.302L1900.58,726.219L1900.11,726.13L1899.64,726.036L1899.17,725.936L1898.71,725.831L1898.24,725.72L1897.78,725.604L1897.31,725.483L1896.85,725.355L1896.38,725.222L1895.92,725.084L1895.46,724.94L1895,724.79L1894.54,724.635L1894.08,724.474L1893.63,724.307L1893.17,724.134L1892.72,723.956L1892.27,723.772L1891.82,723.583L1891.37,723.388L1890.92,723.186L1890.48,722.98L1890.04,722.767L1889.6,722.55L1889.16,722.326L1888.72,722.097L1888.29,721.861L1887.86,721.62L1887.43,721.374L1887,721.123L1886.58,720.866L1886.15,720.602L1885.74,720.334L1885.32,720.061L1884.9,719.781L1884.49,719.497L1884.08,719.206L1883.68,718.911L1883.28,718.611L1882.87,718.303L1882.48,717.992L1882.09,717.677L1881.69,717.355L1881.3,717.027L1880.92,716.693L1880.54,716.359L1880.16,716.017L1879.78,715.667L1879.41,715.316L1879.04,714.96L1878.67,714.596L1878.31,714.229L1877.95,713.858L1877.59,713.481L1877.24,713.1L1876.88,712.714L1876.54,712.323L1876.19,711.926L1875.85,711.526L1875.52,711.122L1875.18,710.712L1874.85,710.296L1874.52,709.877L1874.2,709.457L1873.88,709.029L1873.56,708.593L1873.24,708.156L1872.93,707.715L1872.62,707.27L1872.32,706.819L1872.02,706.365L1871.72,705.907L1871.42,705.442L1871.13,704.975L1870.84,704.501L1870.55,704.023L1870.27,703.544L1869.99,703.058L1869.71,702.568L1869.44,702.073L1869.17,701.574L1868.9,701.071L1868.64,700.564L1868.37,700.05L1868.12,699.535L1867.86,699.015L1867.61,698.489L1867.36,697.96L1867.11,697.426L1866.87,696.887L1866.63,696.346L1866.39,695.798L1866.15,695.247L1865.92,694.689L1865.69,694.128L1865.47,693.566L1865.24,692.995L1865.02,692.422L1864.81,691.844L1864.59,691.26L1864.38,690.672L1864.17,690.079L1863.96,689.484L1863.76,688.885L1863.56,688.277L1863.36,687.666L1863.17,687.054L1862.98,686.432L1862.79,685.808L1862.6,685.18L1862.41,684.548L1862.23,683.908L1862.05,683.264L1861.88,682.62L1861.7,681.965L1861.53,681.302L1861.37,680.643L1861.2,679.986L1861.05,679.331L1860.9,678.678L1860.75,678.023L1860.61,677.375L1860.47,676.726L1860.34,676.079L1860.22,675.435L1860.09,674.793L1859.98,674.153L1859.87,673.514L1859.76,672.877L1859.66,672.241L1859.56,671.606L1859.47,670.976L1859.38,670.347L1859.3,669.717L1859.22,669.094L1859.15,668.47L1859.08,667.847L1859.02,667.228L1858.96,666.608L1858.91,665.992L1858.86,665.378L1858.82,664.763L1858.78,664.154L1858.75,663.547L1858.72,662.936L1858.7,662.332L1858.68,661.729L1858.67,661.125L1858.66,660.528L1858.66,659.93L1858.66,659.334L1858.66,658.739L1858.68,658.145L1858.69,657.559L1858.71,656.971L1858.74,656.383L1858.77,655.801L1858.81,655.218L1858.85,654.637L1858.89,654.06L1858.94,653.482L1859,652.909L1859.06,652.34L1859.12,651.77L1859.19,651.199L1859.27,650.635L1859.35,650.073L1859.43,649.51L1859.52,648.951L1859.61,648.394L1859.71,647.839L1859.81,647.289L1859.92,646.737L1860.03,646.188L1860.15,645.643L1860.27,645.1L1860.4,644.556L1860.53,644.017L1860.66,643.486L1860.8,642.951L1860.95,642.415L1861.1,641.887L1861.25,641.364L1861.41,640.839L1861.57,640.314L1861.74,639.797L1861.91,639.28L1862.09,638.764L1862.27,638.256L1862.45,637.745L1862.64,637.239L1862.84,636.735L1863.03,636.233L1863.24,635.736L1863.44,635.239L1863.65,634.744L1863.87,634.254L1864.08,633.77L1864.31,633.284L1864.53,632.802L1864.77,632.322L1865,631.844L1865.24,631.37L1865.48,630.9L1865.73,630.432L1865.98,629.967L1866.23,629.504L1866.49,629.046L1866.75,628.588L1867.02,628.132L1867.29,627.685L1867.56,627.236L1867.84,626.789L1868.12,626.346L1868.4,625.908L1868.68,625.473L1868.98,625.038L1869.27,624.606L1869.57,624.181L1869.87,623.756L1870.17,623.334L1870.48,622.914L1870.79,622.497L1871.1,622.087L1871.42,621.676L1871.74,621.269L1872.06,620.864L1872.39,620.463L1872.71,620.066L1873.05,619.669L1873.38,619.275L1873.72,618.886L1874.06,618.502L1874.4,618.116L1874.75,617.735L1875.1,617.358L1875.45,616.982L1875.8,616.61L1876.16,616.241L1876.52,615.873L1876.88,615.509L1877.24,615.149L1877.61,614.791L1877.98,614.434L1878.35,614.082L1878.73,613.733L1879.1,613.385L1879.48,613.04L1879.86,612.7L1880.25,612.36L1880.63,612.024L1881.02,611.691L1881.41,611.361L1881.81,611.031L1882.2,610.706L1882.6,610.384L1883,610.063L1883.4,609.745L1883.8,609.431L1884.21,609.119L1884.61,608.809L1885.02,608.502L1885.43,608.197L1885.85,607.894L1886.26,607.594L1886.68,607.297L1887.1,607.003L1887.52,606.71L1887.94,606.42L1888.37,606.133L1888.79,605.848L1889.22,605.566L1889.65,605.286L1890.08,605.007L1890.51,604.732L1890.95,604.46L1891.38,604.189L1891.82,603.92L1892.26,603.654L1892.7,603.39L1893.14,603.128L1893.59,602.869L1894.03,602.612L1894.48,602.358L1894.93,602.105L1895.38,601.853L1895.83,601.605L1896.28,601.36L1896.74,601.116L1897.19,600.874L1897.65,600.634L1898.11,600.396L1898.57,600.161L1899.03,599.927L1899.49,599.696L1899.95,599.467L1900.42,599.239L1900.89,599.014L1901.35,598.791L1901.82,598.57L1902.29,598.35L1902.76,598.133L1903.23,597.918L1903.71,597.704L1904.18,597.493L1904.66,597.284L1905.13,597.076L1905.61,596.87L1906.09,596.666L1906.57,596.464L1907.05,596.264L1907.53,596.066L1908.01,595.87L1908.5,595.675L1908.98,595.482L1909.47,595.291L1909.96,595.102L1910.44,594.915L1910.93,594.729L1911.42,594.545L1911.91,594.363L1912.4,594.183L1912.89,594.004L1913.39,593.827L1913.88,593.651L1914.37,593.478L1914.87,593.306L1915.37,593.135L1915.86,592.967L1916.36,592.8L1916.86,592.635L1917.36,592.471L1917.86,592.309L1918.36,592.148L1918.86,591.99L1919.36,591.832L1919.86,591.677L1920.36,591.522L1920.87,591.37L1921.37,591.218L1921.87,591.069L1922.38,590.921L1922.88,590.775L1923.39,590.63L1923.9,590.486L1924.4,590.344L1924.91,590.204L1925.42,590.065L1925.93,589.927L1926.44,589.791L1926.94,589.656L1927.45,589.523L1927.97,589.391L1928.48,589.261L1928.99,589.132L1929.5,589.004L1930.01,588.878L1930.52,588.753L1931.03,588.63L1931.54,588.508L1932.06,588.387L1932.57,588.267L1933.08,588.149L1933.6,588.033L1934.11,587.917L1934.62,587.803L1935.14,587.69L1935.65,587.579L1936.16,587.469L1936.68,587.36L1937.19,587.252L1937.71,587.146L1938.23,587.039L1939.25,586.834L1940.28,586.633L1941.31,586.436L1942.34,586.244L1943.37,586.057L1944.4,585.874L1945.43,585.697L1946.45,585.523L1947.48,585.355L1948.51,585.19L1949.53,585.031L1950.56,584.875L1951.58,584.724L1952.6,584.577L1953.62,584.434L1954.64,584.295L1955.65,584.16L1956.67,584.03L1957.68,583.903L1958.69,583.78L1959.7,583.661L1960.71,583.546L1961.71,583.434L1962.71,583.326L1963.71,583.222L1964.7,583.121L1965.7,583.024L1966.68,582.93L1967.67,582.84L1968.65,582.753L1969.63,582.669L1970.61,582.589L1971.58,582.511L1972.55,582.437L1973.51,582.366L1974.47,582.298L1975.42,582.233L1976.37,582.171L1977.32,582.112L1978.26,582.055L1979.2,582.002L1980.13,581.951L1981.05,581.903L1981.98,581.857L1982.89,581.814L1983.8,581.774L1984.71,581.736L1985.6,581.7L1986.5,581.667L1987.38,581.636L1988.27,581.607L1989.14,581.581L1990.01,581.557L1990.87,581.534L1991.72,581.514L1992.57,581.496L1993.41,581.48L1994.25,581.466L1995.07,581.454L1995.89,581.444L1996.71,581.435L1997.51,581.428L1998.31,581.423L1999.1,581.419L1999.88,581.417L2000.65,581.417L2001.41,581.418ZM1999.89,593.095L1999.14,593.097L1998.37,593.101L1997.6,593.106L1996.82,593.112L1996.03,593.121L1995.23,593.131L1994.43,593.143L1993.62,593.156L1992.81,593.172L1991.98,593.189L1991.15,593.209L1990.32,593.23L1989.48,593.254L1988.63,593.279L1987.78,593.307L1986.92,593.337L1986.05,593.369L1985.18,593.404L1984.31,593.441L1983.42,593.48L1982.54,593.521L1981.65,593.566L1980.75,593.612L1979.85,593.661L1978.94,593.713L1978.03,593.768L1977.12,593.825L1976.2,593.885L1975.28,593.948L1974.35,594.014L1973.42,594.082L1972.49,594.154L1971.55,594.228L1970.61,594.306L1969.66,594.387L1968.72,594.471L1967.77,594.558L1966.82,594.648L1965.86,594.742L1964.9,594.839L1963.94,594.939L1962.98,595.043L1962.02,595.15L1961.05,595.261L1960.08,595.375L1959.11,595.493L1958.14,595.615L1957.17,595.74L1956.19,595.869L1955.22,596.002L1954.24,596.139L1953.26,596.279L1952.29,596.424L1951.31,596.573L1950.33,596.725L1949.35,596.882L1948.37,597.043L1947.39,597.208L1946.41,597.377L1945.43,597.551L1944.45,597.729L1943.48,597.911L1942.5,598.098L1941.52,598.289L1940.55,598.485L1940.06,598.585L1939.57,598.685L1939.09,598.787L1938.6,598.89L1938.11,598.994L1937.63,599.1L1937.14,599.206L1936.66,599.314L1936.17,599.423L1935.69,599.533L1935.2,599.645L1934.72,599.757L1934.24,599.871L1933.76,599.986L1933.27,600.102L1932.79,600.219L1932.31,600.338L1931.83,600.458L1931.35,600.579L1930.87,600.702L1930.39,600.825L1929.91,600.95L1929.44,601.076L1928.96,601.204L1928.49,601.333L1928.01,601.463L1927.54,601.594L1927.06,601.727L1926.59,601.861L1926.12,601.996L1925.65,602.133L1925.17,602.271L1924.7,602.41L1924.24,602.55L1923.77,602.692L1923.3,602.836L1922.84,602.98L1922.37,603.126L1921.9,603.274L1921.44,603.422L1920.98,603.573L1920.52,603.724L1920.06,603.877L1919.6,604.031L1919.14,604.187L1918.68,604.344L1918.22,604.503L1917.77,604.663L1917.32,604.824L1916.86,604.987L1916.41,605.151L1915.96,605.317L1915.51,605.484L1915.06,605.652L1914.61,605.823L1914.17,605.994L1913.72,606.167L1913.28,606.342L1912.84,606.518L1912.39,606.695L1911.95,606.874L1911.52,607.054L1911.08,607.236L1910.64,607.42L1910.21,607.605L1909.78,607.791L1909.34,607.979L1908.91,608.169L1908.49,608.36L1908.06,608.553L1907.63,608.747L1907.21,608.943L1906.79,609.14L1906.36,609.339L1905.94,609.54L1905.53,609.742L1905.11,609.946L1904.69,610.151L1904.28,610.358L1903.87,610.567L1903.46,610.777L1903.05,610.988L1902.64,611.202L1902.24,611.417L1901.84,611.634L1901.43,611.852L1901.03,612.072L1900.63,612.293L1900.24,612.517L1899.84,612.742L1899.45,612.968L1899.06,613.197L1898.67,613.427L1898.28,613.658L1897.9,613.892L1897.52,614.127L1897.13,614.364L1896.76,614.602L1896.38,614.843L1896,615.085L1895.63,615.328L1895.26,615.574L1894.89,615.821L1894.52,616.07L1894.15,616.321L1893.79,616.573L1893.43,616.827L1893.07,617.083L1892.71,617.341L1892.36,617.601L1892.01,617.862L1891.65,618.125L1891.31,618.39L1890.96,618.657L1890.62,618.926L1890.28,619.196L1889.93,619.468L1889.6,619.743L1889.26,620.019L1888.93,620.296L1888.6,620.576L1888.27,620.857L1887.95,621.141L1887.62,621.426L1887.3,621.713L1886.99,622.002L1886.67,622.293L1886.36,622.586L1886.05,622.881L1885.74,623.177L1885.43,623.476L1885.13,623.776L1884.83,624.079L1884.53,624.383L1884.23,624.689L1883.94,624.997L1883.65,625.307L1883.36,625.619L1883.08,625.933L1882.8,626.249L1882.52,626.567L1882.24,626.887L1881.96,627.209L1881.69,627.533L1881.42,627.859L1881.16,628.187L1880.89,628.517L1880.63,628.849L1880.38,629.183L1880.12,629.519L1879.87,629.857L1879.62,630.197L1879.37,630.539L1879.13,630.883L1878.89,631.229L1878.65,631.577L1878.42,631.928L1878.18,632.28L1877.96,632.634L1877.73,632.991L1877.51,633.35L1877.29,633.71L1877.07,634.073L1876.86,634.438L1876.65,634.805L1876.44,635.174L1876.24,635.546L1876.04,635.919L1875.84,636.295L1875.64,636.672L1875.45,637.052L1875.26,637.434L1875.08,637.818L1874.9,638.205L1874.72,638.593L1874.54,638.984L1874.37,639.377L1874.2,639.772L1874.04,640.169L1873.88,640.569L1873.72,640.97L1873.56,641.374L1873.41,641.78L1873.26,642.189L1873.12,642.599L1872.98,643.012L1872.84,643.427L1872.7,643.844L1872.57,644.264L1872.45,644.686L1872.32,645.11L1872.2,645.536L1872.09,645.965L1871.97,646.396L1871.86,646.829L1871.76,647.265L1871.66,647.702L1871.56,648.142L1871.46,648.585L1871.37,649.03L1871.28,649.477L1871.2,649.926L1871.12,650.378L1871.04,650.832L1870.97,651.289L1870.9,651.747L1870.84,652.209L1870.78,652.672L1870.72,653.138L1870.67,653.606L1870.62,654.077L1870.57,654.55L1870.53,655.026L1870.49,655.503L1870.46,655.984L1870.43,656.466L1870.4,656.952L1870.38,657.439L1870.37,657.929L1870.35,658.421L1870.34,658.916L1870.34,659.414L1870.34,659.913L1870.34,660.416L1870.34,660.92L1870.36,661.428L1870.37,661.937L1870.39,662.449L1870.41,662.964L1870.44,663.481L1870.47,664.001L1870.51,664.523L1870.55,665.048L1870.6,665.575L1870.64,666.105L1870.7,666.637L1870.76,667.172L1870.82,667.709L1870.88,668.249L1870.95,668.791L1871.03,669.337L1871.11,669.884L1871.19,670.434L1871.28,670.987L1871.38,671.542L1871.47,672.1L1871.58,672.661L1871.68,673.224L1871.79,673.79L1871.91,674.358L1872.03,674.929L1872.15,675.503L1872.28,676.079L1872.42,676.658L1872.56,677.239L1872.7,677.824L1872.85,678.41L1873,679L1873.16,679.588L1873.32,680.171L1873.48,680.748L1873.64,681.32L1873.8,681.887L1873.97,682.448L1874.14,683.004L1874.31,683.554L1874.48,684.1L1874.66,684.64L1874.83,685.174L1875.01,685.704L1875.19,686.228L1875.38,686.747L1875.56,687.26L1875.75,687.769L1875.94,688.272L1876.13,688.77L1876.33,689.263L1876.52,689.751L1876.72,690.234L1876.92,690.711L1877.12,691.184L1877.32,691.651L1877.53,692.113L1877.73,692.57L1877.94,693.022L1878.15,693.47L1878.36,693.912L1878.58,694.349L1878.8,694.781L1879.01,695.208L1879.23,695.63L1879.45,696.047L1879.68,696.459L1879.9,696.867L1880.13,697.269L1880.36,697.667L1880.59,698.059L1880.83,698.447L1881.06,698.83L1881.3,699.208L1881.53,699.581L1881.77,699.95L1882.02,700.314L1882.26,700.673L1882.5,701.027L1882.75,701.376L1883,701.721L1883.25,702.061L1883.5,702.396L1883.75,702.727L1884.01,703.052L1884.27,703.374L1884.52,703.69L1884.78,704.002L1885.05,704.31L1885.31,704.612L1885.57,704.91L1885.84,705.204L1886.11,705.493L1886.38,705.778L1886.65,706.058L1886.92,706.333L1887.2,706.604L1887.47,706.87L1887.75,707.132L1888.03,707.39L1888.31,707.643L1888.59,707.892L1888.87,708.136L1889.16,708.376L1889.45,708.611L1889.73,708.842L1890.02,709.069L1890.31,709.291L1890.61,709.509L1890.9,709.723L1891.19,709.933L1891.49,710.138L1891.79,710.339L1892.09,710.535L1892.39,710.728L1892.69,710.916L1893,711.1L1893.3,711.28L1893.61,711.455L1893.91,711.627L1894.22,711.794L1894.53,711.957L1894.84,712.116L1895.16,712.271L1895.47,712.422L1895.79,712.568L1896.1,712.711L1896.42,712.85L1896.74,712.984L1897.06,713.115L1897.38,713.241L1897.7,713.364L1898.03,713.482L1898.36,713.597L1898.68,713.708L1899.01,713.814L1899.34,713.917L1899.67,714.016L1900,714.111L1900.33,714.202L1900.66,714.289L1901,714.373L1901.34,714.452L1901.67,714.528L1902.01,714.6L1902.35,714.668L1902.69,714.732L1903.03,714.793L1903.37,714.85L1903.72,714.903L1904.06,714.952L1904.41,714.998L1904.75,715.04L1905.1,715.078L1905.45,715.113L1905.8,715.144L1906.15,715.171L1906.5,715.195L1906.85,715.215L1907.21,715.232L1907.56,715.245L1907.92,715.254L1908.27,715.26L1908.63,715.263L1908.99,715.262L1909.35,715.257L1909.71,715.249L1910.07,715.237L1910.43,715.222L1910.79,715.204L1911.16,715.182L1911.52,715.156L1911.88,715.128L1912.25,715.095L1912.62,715.06L1912.99,715.021L1913.35,714.979L1913.72,714.933L1914.09,714.885L1914.46,714.832L1914.84,714.777L1915.21,714.718L1915.58,714.656L1915.96,714.591L1916.33,714.523L1916.71,714.451L1917.08,714.376L1917.46,714.298L1917.84,714.217L1918.21,714.133L1918.59,714.045L1918.97,713.955L1919.35,713.861L1919.73,713.764L1920.12,713.664L1920.5,713.561L1920.88,713.455L1921.26,713.346L1921.65,713.234L1922.03,713.119L1922.42,713.001L1922.8,712.88L1923.19,712.756L1923.58,712.629L1923.96,712.499L1924.35,712.366L1924.74,712.23L1925.13,712.092L1925.52,711.95L1925.91,711.806L1926.3,711.658L1926.69,711.508L1927.08,711.355L1927.47,711.2L1927.87,711.041L1928.26,710.88L1928.65,710.716L1929.05,710.549L1929.44,710.38L1929.83,710.207L1930.23,710.032L1930.62,709.855L1931.02,709.675L1931.41,709.492L1931.81,709.306L1932.21,709.118L1932.61,708.927L1933,708.733L1933.4,708.537L1933.8,708.339L1934.2,708.137L1934.6,707.934L1935,707.727L1935.39,707.519L1935.79,707.307L1936.19,707.093L1936.59,706.877L1936.99,706.658L1937.39,706.437L1937.8,706.214L1938.2,705.988L1938.6,705.759L1939,705.528L1939.4,705.295L1939.8,705.06L1940.2,704.822L1940.61,704.582L1941.01,704.339L1941.41,704.094L1941.81,703.847L1942.22,703.598L1942.62,703.346L1943.02,703.092L1943.42,702.836L1943.83,702.578L1944.23,702.317L1944.63,702.055L1945.04,701.79L1945.44,701.523L1945.84,701.253L1946.25,700.982L1946.65,700.709L1947.05,700.433L1947.45,700.156L1947.86,699.876L1948.26,699.594L1948.66,699.31L1949.07,699.025L1949.47,698.737L1949.88,698.447L1950.28,698.155L1950.68,697.862L1951.08,697.566L1951.49,697.268L1951.89,696.969L1952.29,696.667L1952.69,696.364L1953.1,696.059L1953.5,695.752L1953.9,695.443L1954.3,695.132L1954.7,694.819L1955.11,694.505L1955.51,694.188L1955.91,693.87L1956.31,693.551L1956.71,693.229L1957.11,692.906L1957.51,692.581L1957.91,692.254L1958.31,691.926L1958.71,691.596L1959.11,691.264L1959.51,690.931L1959.91,690.596L1960.31,690.259L1960.7,689.921L1961.1,689.581L1961.5,689.24L1961.9,688.897L1962.29,688.552L1962.69,688.206L1963.09,687.859L1963.48,687.51L1963.88,687.159L1964.27,686.807L1964.67,686.454L1965.06,686.099L1965.45,685.742L1965.85,685.385L1966.24,685.025L1966.63,684.665L1967.02,684.303L1967.42,683.94L1967.81,683.575L1968.2,683.209L1968.59,682.842L1968.98,682.473L1969.37,682.103L1969.75,681.732L1970.14,681.36L1970.53,680.986L1970.92,680.611L1971.3,680.235L1971.69,679.858L1972.07,679.479L1972.46,679.099L1972.84,678.719L1973.23,678.337L1973.61,677.954L1973.99,677.569L1974.37,677.184L1974.75,676.798L1975.13,676.41L1975.51,676.022L1975.89,675.632L1976.27,675.242L1976.65,674.85L1977.02,674.457L1977.4,674.064L1977.78,673.669L1978.15,673.274L1978.52,672.877L1978.9,672.48L1979.27,672.082L1979.64,671.683L1980.38,670.882L1981.12,670.077L1981.86,669.27L1982.59,668.459L1983.31,667.645L1984.04,666.828L1984.76,666.008L1985.48,665.186L1986.19,664.361L1986.9,663.533L1987.61,662.704L1988.31,661.871L1989.01,661.037L1989.7,660.201L1990.39,659.363L1991.08,658.523L1991.76,657.681L1992.44,656.838L1993.11,655.993L1993.78,655.147L1994.44,654.3L1995.1,653.452L1995.75,652.602L1996.4,651.752L1997.05,650.901L1997.69,650.05L1998.32,649.198L1998.95,648.345L1999.58,647.493L2000.19,646.64L2000.81,645.787L2001.42,644.934L2002.02,644.081L2002.62,643.229L2003.21,642.377L2003.8,641.525L2004.38,640.675L2004.95,639.825L2005.52,638.975L2006.08,638.127L2006.64,637.28L2007.19,636.434L2007.73,635.59L2008.27,634.747L2008.8,633.905L2009.33,633.065L2009.85,632.227L2010.36,631.391L2010.86,630.557L2011.11,630.141L2011.36,629.725L2011.61,629.31L2011.85,628.895L2012.1,628.481L2012.34,628.068L2012.58,627.655L2012.82,627.243L2013.05,626.832L2013.29,626.421L2013.52,626.011L2013.75,625.601L2013.98,625.193L2014.21,624.785L2014.43,624.377L2014.66,623.971L2014.88,623.565L2015.1,623.16L2015.32,622.756L2015.54,622.353L2015.75,621.951L2015.96,621.549L2016.17,621.148L2016.38,620.748L2016.59,620.349L2016.79,619.951L2017,619.554L2017.2,619.157L2017.4,618.762L2017.6,618.368L2017.79,617.974L2017.98,617.582L2018.17,617.19L2018.37,616.8L2018.55,616.411L2018.74,616.022L2018.92,615.635L2019.1,615.249L2019.28,614.864L2019.46,614.48L2019.63,614.097L2019.81,613.715L2019.98,613.334L2020.15,612.955L2020.31,612.576L2020.48,612.199L2020.64,611.823L2020.8,611.449L2020.96,611.075L2021.12,610.703L2021.27,610.332L2021.42,609.962L2021.57,609.594L2021.72,609.227L2021.87,608.861L2022.01,608.497L2022.15,608.133L2022.29,607.772L2022.43,607.411L2022.56,607.052L2022.69,606.695L2022.82,606.339L2022.95,605.984L2023.08,605.631L2023.2,605.279L2023.32,604.929L2023.44,604.58L2023.55,604.232L2023.67,603.887L2023.78,603.542L2023.89,603.2L2024,602.858L2024.1,602.519L2024.2,602.181L2024.3,601.845L2024.4,601.51L2024.5,601.177L2024.59,600.845L2024.68,600.515L2024.77,600.187L2024.85,599.861L2024.93,599.536L2025.01,599.213L2025.09,598.892L2025.17,598.572L2025.24,598.255L2025.31,597.939L2025.38,597.625L2025.45,597.312L2025.51,597.002L2025.57,596.693L2025.63,596.386L2025.68,596.081L2025.74,595.778L2025.79,595.477L2025.83,595.178L2025.88,594.88L2025.92,594.585L2025.96,594.291L2026,594L2025.87,593.989L2025.49,593.958L2024.86,593.909L2023.99,593.847L2023.47,593.811L2022.9,593.773L2022.27,593.733L2021.59,593.692L2020.85,593.649L2020.06,593.605L2019.23,593.561L2018.34,593.516L2017.41,593.472L2016.42,593.429L2015.4,593.386L2014.33,593.345L2013.21,593.306L2012.05,593.269L2010.85,593.235L2009.61,593.203L2008.33,593.175L2007.02,593.15L2006.34,593.139L2005.66,593.129L2004.97,593.121L2004.27,593.113L2003.56,593.107L2002.85,593.102L2002.12,593.098L2001.39,593.096L2000.64,593.095L1999.89,593.095Z" style="fill:rgb(26,26,26);"/>
                    <path d="M2026,594C2026,594 1846.53,578.161 1873,679C1899.48,779.839 2019.82,643.577 2026,594Z" style="fill:white;"/>
                </g>
                <g transform="matrix(1,0,0,1,-12,-27.2628)">
                    <path d="M1875.34,689.89C1875.34,689.89 1900.42,661.545 1933,648.179" style="fill:none;stroke:rgb(26,26,26);stroke-width:10.9px;stroke-linejoin:round;"/>
                </g>
            </g>
            <g transform="matrix(1.05575,0,0,1.05575,-106.216,-145.962)">
                <g>
                    <path d="M1727.04,609.879L1727.78,609.882L1728.52,609.887L1729.27,609.894L1730.02,609.902L1730.77,609.912L1731.52,609.925L1732.28,609.939L1733.04,609.955L1733.81,609.973L1734.58,609.994L1735.35,610.016L1736.12,610.04L1736.9,610.067L1737.67,610.096L1738.46,610.128L1739.24,610.161L1740.03,610.197L1740.82,610.235L1741.61,610.276L1742.4,610.32L1743.19,610.365L1743.99,610.414L1744.79,610.465L1745.59,610.518L1746.39,610.575L1747.2,610.634L1748,610.696L1748.81,610.76L1749.62,610.828L1750.43,610.898L1751.24,610.972L1752.05,611.048L1752.86,611.127L1753.67,611.21L1754.49,611.296L1755.3,611.384L1756.11,611.476L1756.93,611.572L1757.75,611.67L1758.56,611.772L1759.38,611.878L1760.19,611.987L1761.01,612.099L1761.82,612.215L1762.64,612.335L1763.45,612.458L1764.27,612.585L1765.09,612.716L1765.9,612.85L1766.71,612.989L1767.53,613.131L1768.34,613.277L1769.15,613.427L1769.96,613.582L1770.77,613.74L1771.58,613.903L1772.38,614.07L1773.19,614.241L1774,614.417L1774.8,614.597L1775.59,614.78L1776,614.875L1776.4,614.97L1776.8,615.067L1777.2,615.164L1777.6,615.262L1777.99,615.362L1778.39,615.463L1778.79,615.566L1779.19,615.669L1779.58,615.773L1779.98,615.879L1780.37,615.986L1780.77,616.095L1781.16,616.204L1781.55,616.314L1781.94,616.426L1782.34,616.54L1782.73,616.655L1783.12,616.77L1783.51,616.887L1783.9,617.006L1784.29,617.125L1784.68,617.246L1785.07,617.369L1785.45,617.493L1785.84,617.618L1786.23,617.745L1786.61,617.872L1787,618.002L1787.38,618.132L1787.77,618.264L1788.15,618.398L1788.53,618.532L1788.91,618.669L1789.29,618.807L1789.67,618.946L1790.05,619.087L1790.43,619.229L1790.81,619.372L1791.18,619.518L1791.56,619.665L1791.93,619.812L1792.31,619.962L1792.68,620.114L1793.05,620.266L1793.42,620.421L1793.79,620.577L1794.16,620.735L1794.53,620.894L1794.9,621.055L1795.27,621.217L1795.63,621.382L1796,621.547L1796.36,621.715L1796.72,621.884L1797.09,622.055L1797.45,622.228L1797.81,622.402L1798.16,622.578L1798.52,622.756L1798.88,622.936L1799.23,623.116L1799.59,623.3L1799.94,623.485L1800.3,623.672L1800.65,623.861L1801,624.051L1801.34,624.243L1801.69,624.438L1802.04,624.634L1802.39,624.832L1802.73,625.033L1803.07,625.234L1803.41,625.438L1803.76,625.644L1804.09,625.851L1804.43,626.062L1804.77,626.274L1805.1,626.488L1805.44,626.703L1805.77,626.921L1806.1,627.142L1806.43,627.364L1806.76,627.59L1807.09,627.816L1807.41,628.042L1807.73,628.273L1808.06,628.508L1808.38,628.743L1808.7,628.98L1809.01,629.219L1809.33,629.462L1809.64,629.707L1809.96,629.952L1810.27,630.201L1810.58,630.452L1810.88,630.705L1811.19,630.962L1811.5,631.219L1811.8,631.479L1812.1,631.742L1812.4,632.007L1812.69,632.275L1812.99,632.544L1813.28,632.815L1813.57,633.091L1813.86,633.369L1814.15,633.647L1814.43,633.929L1814.72,634.214L1815,634.499L1815.28,634.79L1815.55,635.082L1815.83,635.376L1816.1,635.674L1816.37,635.973L1816.63,636.274L1816.9,636.577L1817.16,636.886L1817.42,637.195L1817.68,637.506L1817.94,637.822L1818.19,638.139L1818.44,638.456L1818.69,638.779L1818.93,639.106L1819.17,639.433L1819.41,639.76L1819.65,640.092L1819.88,640.428L1820.12,640.767L1820.34,641.105L1820.57,641.447L1820.79,641.792L1821.01,642.14L1821.23,642.488L1821.44,642.84L1821.65,643.197L1821.86,643.551L1822.07,643.912L1822.27,644.274L1822.47,644.639L1822.66,645.005L1822.85,645.374L1823.04,645.744L1823.22,646.116L1823.41,646.497L1823.59,646.876L1823.76,647.251L1823.93,647.634L1824.1,648.022L1824.27,648.41L1824.42,648.799L1824.58,649.189L1824.74,649.584L1824.89,649.978L1825.03,650.376L1825.17,650.776L1825.31,651.178L1825.45,651.584L1825.58,651.989L1825.71,652.396L1825.83,652.807L1825.95,653.219L1826.07,653.633L1826.18,654.049L1826.29,654.466L1826.4,654.884L1826.5,655.307L1826.6,655.731L1826.69,656.154L1826.78,656.577L1826.86,657.005L1826.95,657.438L1827.02,657.869L1827.1,658.301L1827.17,658.737L1827.23,659.174L1827.3,659.609L1827.35,660.046L1827.41,660.49L1827.46,660.932L1827.5,661.375L1827.55,661.822L1827.58,662.267L1827.62,662.712L1827.65,663.162L1827.67,663.613L1827.7,664.065L1827.72,664.521L1827.73,664.975L1827.74,665.427L1827.75,665.886L1827.75,666.345L1827.75,666.806L1827.74,667.267L1827.73,667.727L1827.72,668.193L1827.7,668.66L1827.68,669.122L1827.65,669.59L1827.62,670.06L1827.59,670.527L1827.55,671.001L1827.51,671.473L1827.47,671.943L1827.42,672.419L1827.37,672.897L1827.31,673.372L1827.25,673.851L1827.18,674.328L1827.12,674.808L1827.04,675.292L1826.97,675.769L1826.89,676.241L1826.81,676.705L1826.73,677.164L1826.64,677.62L1826.56,678.077L1826.47,678.533L1826.38,678.983L1826.28,679.433L1826.19,679.879L1826.09,680.32L1825.99,680.764L1825.88,681.204L1825.78,681.638L1825.67,682.076L1825.56,682.509L1825.44,682.937L1825.33,683.365L1825.2,683.791L1825.08,684.213L1824.96,684.633L1824.83,685.05L1824.7,685.468L1824.57,685.884L1824.44,686.292L1824.3,686.701L1824.16,687.11L1824.02,687.512L1823.87,687.914L1823.72,688.314L1823.57,688.71L1823.42,689.106L1823.27,689.499L1823.11,689.888L1822.95,690.275L1822.78,690.662L1822.62,691.044L1822.45,691.424L1822.28,691.802L1822.1,692.178L1821.92,692.551L1821.75,692.923L1821.56,693.291L1821.38,693.655L1821.19,694.019L1821,694.382L1820.81,694.739L1820.61,695.094L1820.41,695.449L1820.21,695.801L1820.01,696.146L1819.8,696.491L1819.59,696.837L1819.38,697.175L1819.17,697.514L1818.95,697.849L1818.73,698.182L1818.5,698.513L1818.28,698.839L1818.05,699.162L1817.82,699.484L1817.59,699.804L1817.35,700.117L1817.11,700.432L1816.87,700.742L1816.63,701.05L1816.38,701.357L1816.13,701.655L1815.88,701.952L1815.62,702.249L1815.37,702.545L1815.11,702.833L1814.85,703.118L1814.58,703.403L1814.32,703.683L1814.05,703.961L1813.77,704.236L1813.5,704.506L1813.22,704.774L1812.94,705.039L1812.66,705.3L1812.38,705.56L1812.09,705.815L1811.81,706.065L1811.51,706.314L1811.22,706.56L1810.92,706.803L1810.63,707.041L1810.33,707.275L1810.03,707.507L1809.73,707.735L1809.42,707.961L1809.11,708.184L1808.81,708.4L1808.5,708.615L1808.18,708.828L1807.87,709.035L1807.55,709.239L1807.23,709.44L1806.91,709.637L1806.59,709.831L1806.27,710.022L1805.94,710.209L1805.62,710.392L1805.29,710.573L1804.96,710.749L1804.63,710.921L1804.3,711.09L1803.97,711.258L1803.63,711.42L1803.3,711.577L1802.96,711.734L1802.62,711.886L1802.28,712.035L1801.94,712.179L1801.6,712.32L1801.26,712.459L1800.91,712.594L1800.57,712.725L1800.22,712.853L1799.88,712.977L1799.53,713.099L1799.18,713.216L1798.83,713.331L1798.48,713.441L1798.13,713.549L1797.78,713.654L1797.43,713.755L1797.07,713.853L1796.72,713.947L1796.37,714.038L1796.01,714.127L1795.65,714.212L1795.3,714.293L1794.94,714.372L1794.59,714.447L1794.23,714.52L1793.87,714.589L1793.51,714.655L1793.15,714.718L1792.79,714.778L1792.43,714.835L1792.08,714.889L1791.72,714.941L1791.35,714.989L1790.99,715.034L1790.63,715.076L1790.27,715.116L1789.91,715.152L1789.55,715.186L1789.18,715.217L1788.82,715.245L1788.46,715.271L1788.1,715.293L1787.73,715.313L1787.37,715.33L1787.01,715.345L1786.64,715.357L1786.28,715.366L1785.92,715.372L1785.55,715.376L1785.18,715.377L1784.82,715.376L1784.46,715.372L1784.09,715.366L1783.73,715.357L1783.37,715.346L1783,715.332L1782.63,715.316L1782.27,715.297L1781.9,715.276L1781.54,715.253L1781.17,715.227L1780.81,715.199L1780.44,715.168L1780.08,715.135L1779.71,715.1L1779.35,715.063L1778.98,715.023L1778.62,714.981L1778.25,714.936L1777.89,714.89L1777.52,714.841L1777.15,714.79L1776.79,714.737L1776.42,714.682L1776.06,714.624L1775.69,714.565L1775.33,714.503L1774.96,714.439L1774.6,714.374L1774.23,714.306L1773.86,714.235L1773.5,714.163L1773.13,714.089L1772.77,714.013L1772.4,713.935L1772.04,713.855L1771.67,713.773L1771.3,713.688L1770.94,713.602L1770.57,713.514L1770.21,713.424L1769.84,713.332L1769.48,713.238L1769.11,713.142L1768.75,713.045L1768.38,712.945L1768.01,712.843L1767.65,712.74L1767.28,712.635L1766.92,712.528L1766.55,712.419L1766.19,712.308L1765.82,712.196L1765.46,712.082L1765.09,711.966L1764.73,711.847L1764.36,711.728L1764,711.606L1763.63,711.483L1763.27,711.358L1762.9,711.231L1762.54,711.103L1762.17,710.973L1761.81,710.841L1761.44,710.707L1761.08,710.572L1760.72,710.435L1760.35,710.297L1759.99,710.157L1759.62,710.014L1759.26,709.871L1758.9,709.726L1758.53,709.579L1758.17,709.43L1757.81,709.28L1757.44,709.128L1757.08,708.974L1756.72,708.82L1756.35,708.663L1755.99,708.505L1755.63,708.345L1755.27,708.184L1754.9,708.021L1754.54,707.856L1754.18,707.69L1753.82,707.523L1753.45,707.355L1753.09,707.183L1752.73,707.011L1752.37,706.837L1752.01,706.663L1751.64,706.486L1751.28,706.308L1750.92,706.128L1750.56,705.946L1750.2,705.765L1749.84,705.58L1749.48,705.395L1749.12,705.208L1748.76,705.02L1748.4,704.83L1748.04,704.639L1747.68,704.446L1747.32,704.252L1746.96,704.056L1746.6,703.86L1746.24,703.661L1745.88,703.461L1745.53,703.261L1745.17,703.058L1744.81,702.854L1744.45,702.649L1744.1,702.442L1743.74,702.234L1743.38,702.025L1743.03,701.813L1742.67,701.602L1742.32,701.389L1741.96,701.174L1741.6,700.958L1741.25,700.741L1740.89,700.522L1740.54,700.302L1740.18,700.081L1739.83,699.859L1739.48,699.636L1739.12,699.41L1738.77,699.183L1738.42,698.956L1738.07,698.727L1737.71,698.497L1737.36,698.265L1737.01,698.032L1736.66,697.798L1736.31,697.563L1735.96,697.327L1735.61,697.09L1735.26,696.851L1734.91,696.61L1734.56,696.37L1734.21,696.127L1733.87,695.883L1733.51,695.634L1732.82,695.145L1732.13,694.647L1731.44,694.144L1730.75,693.637L1730.06,693.126L1729.38,692.61L1728.69,692.088L1728.01,691.564L1727.33,691.034L1726.65,690.5L1725.98,689.961L1725.31,689.419L1724.63,688.872L1723.97,688.322L1723.3,687.767L1722.63,687.207L1721.97,686.643L1721.31,686.077L1720.65,685.506L1720,684.93L1719.35,684.351L1718.69,683.768L1718.05,683.181L1717.4,682.591L1716.76,681.996L1716.12,681.398L1715.49,680.797L1714.85,680.192L1714.22,679.583L1713.59,678.97L1712.97,678.355L1712.35,677.735L1711.73,677.112L1711.12,676.486L1710.5,675.857L1709.89,675.224L1709.29,674.588L1708.69,673.948L1708.09,673.306L1707.5,672.661L1706.9,672.011L1706.32,671.365L1706.02,671.033L1705.73,670.705L1705.44,670.375L1705.15,670.048L1704.87,669.718L1704.58,669.386L1704.29,669.054L1704,668.721L1703.72,668.389L1703.43,668.055L1703.15,667.72L1702.87,667.387L1702.59,667.051L1702.31,666.713L1702.03,666.375L1701.75,666.037L1701.48,665.7L1701.2,665.361L1700.92,665.02L1700.65,664.679L1700.38,664.338L1700.11,663.995L1699.84,663.652L1699.57,663.311L1699.3,662.966L1699.03,662.621L1698.77,662.276L1698.5,661.93L1698.24,661.582L1697.97,661.235L1697.71,660.888L1697.45,660.54L1697.19,660.192L1696.93,659.84L1696.68,659.49L1696.42,659.14L1696.17,658.786L1695.91,658.435L1695.66,658.083L1695.41,657.73L1695.16,657.374L1694.91,657.021L1694.66,656.666L1694.42,656.31L1694.17,655.952L1693.93,655.596L1693.69,655.24L1693.44,654.881L1693.2,654.524L1692.97,654.164L1692.73,653.802L1692.49,653.443L1692.26,653.083L1692.02,652.721L1691.79,652.36L1691.56,651.996L1691.33,651.635L1691.1,651.27L1690.87,650.905L1690.65,650.543L1690.42,650.178L1690.2,649.811L1689.98,649.445L1689.76,649.078L1689.54,648.713L1689.32,648.345L1689.11,647.976L1688.89,647.606L1688.68,647.238L1688.47,646.87L1688.26,646.499L1688.05,646.128L1687.84,645.757L1687.63,645.386L1687.43,645.014L1687.23,644.641L1687.02,644.269L1686.82,643.895L1686.62,643.52L1686.43,643.147L1686.23,642.773L1686.04,642.395L1685.85,642.023L1685.65,641.645L1685.47,641.269L1685.28,640.893L1685.09,640.512L1684.9,640.136L1684.72,639.76L1684.54,639.38L1684.36,639L1684.18,638.62L1684.01,638.242L1683.83,637.863L1683.66,637.479L1683.49,637.099L1683.32,636.717L1683.15,636.334L1682.98,635.952L1682.82,635.571L1682.65,635.186L1682.49,634.802L1682.33,634.42L1682.17,634.034L1682.01,633.649L1681.86,633.267L1681.71,632.879L1681.56,632.493L1681.4,632.107L1681.26,631.721L1681.11,631.334L1680.97,630.945L1680.82,630.556L1680.68,630.17L1680.55,629.783L1680.41,629.393L1680.27,629.002L1680.14,628.615L1680.01,628.225L1679.88,627.832L1679.75,627.444L1679.63,627.053L1679.5,626.66L1679.39,626.294L1679.19,625.574L1679.04,624.841L1678.94,624.1L1678.9,623.354L1678.9,622.607L1678.95,621.861L1679.05,621.121L1679.2,620.389L1679.4,619.668L1679.65,618.963L1679.94,618.277L1680.29,617.611L1680.67,616.97L1681.1,616.356L1681.56,615.773L1682.07,615.222L1682.61,614.706L1683.18,614.228L1683.79,613.789L1684.42,613.392L1685.08,613.039L1685.76,612.731L1686.46,612.469L1687.18,612.255L1687.91,612.09L1688.64,611.973L1689.07,611.922L1689.6,611.859L1690.31,611.779L1691.18,611.683L1691.7,611.628L1692.25,611.571L1692.84,611.511L1693.47,611.449L1694.13,611.384L1694.84,611.318L1695.59,611.25L1696.37,611.18L1697.19,611.109L1698.04,611.038L1698.93,610.966L1699.85,610.894L1700.81,610.822L1701.79,610.751L1702.81,610.68L1703.86,610.61L1704.94,610.542L1706.04,610.475L1707.18,610.41L1708.34,610.348L1709.53,610.288L1710.75,610.231L1711.98,610.177L1712.61,610.151L1713.25,610.126L1713.89,610.102L1714.54,610.079L1715.19,610.058L1715.85,610.037L1716.51,610.017L1717.18,609.998L1717.85,609.981L1718.53,609.965L1719.21,609.95L1719.9,609.936L1720.6,609.924L1721.3,609.913L1722,609.903L1722.71,609.895L1723.42,609.889L1724.13,609.884L1724.86,609.88L1725.58,609.878L1726.31,609.878L1727.04,609.879ZM1725.6,620.988L1724.9,620.989L1724.2,620.993L1723.51,620.998L1722.82,621.004L1722.14,621.012L1721.46,621.021L1720.78,621.032L1720.11,621.044L1719.44,621.057L1718.78,621.071L1718.13,621.087L1717.47,621.104L1716.83,621.122L1716.19,621.141L1715.55,621.161L1714.92,621.182L1714.29,621.204L1713.67,621.228L1713.06,621.252L1712.45,621.276L1711.25,621.329L1710.07,621.384L1708.92,621.442L1707.79,621.503L1706.69,621.565L1705.62,621.63L1704.58,621.696L1703.56,621.764L1702.58,621.832L1701.62,621.901L1700.7,621.971L1699.81,622.04L1698.95,622.11L1698.13,622.179L1697.34,622.247L1696.59,622.314L1695.87,622.38L1695.19,622.444L1694.55,622.506L1693.94,622.565L1693.38,622.623L1692.86,622.677L1692.37,622.728L1691.54,622.82L1690.87,622.895L1690.39,622.952L1690,623L1690.11,623.341L1690.21,623.682L1690.32,624.023L1690.43,624.364L1690.55,624.705L1690.66,625.047L1690.78,625.388L1690.9,625.729L1691.02,626.071L1691.14,626.412L1691.26,626.753L1691.39,627.095L1691.52,627.436L1691.64,627.777L1691.77,628.119L1691.91,628.46L1692.04,628.801L1692.18,629.143L1692.31,629.484L1692.45,629.825L1692.59,630.166L1692.73,630.507L1692.88,630.849L1693.02,631.19L1693.17,631.53L1693.32,631.871L1693.47,632.212L1693.62,632.553L1693.78,632.893L1693.93,633.234L1694.09,633.574L1694.25,633.914L1694.41,634.255L1694.57,634.595L1694.73,634.935L1694.89,635.274L1695.06,635.614L1695.23,635.953L1695.4,636.293L1695.57,636.632L1695.74,636.971L1695.91,637.31L1696.09,637.648L1696.27,637.987L1696.44,638.325L1696.62,638.663L1696.81,639.001L1696.99,639.339L1697.17,639.676L1697.36,640.013L1697.55,640.35L1697.73,640.687L1697.92,641.024L1698.11,641.36L1698.31,641.696L1698.5,642.032L1698.7,642.367L1698.89,642.703L1699.09,643.038L1699.29,643.372L1699.49,643.707L1699.69,644.041L1699.9,644.375L1700.1,644.708L1700.31,645.042L1700.52,645.375L1700.73,645.707L1700.94,646.04L1701.15,646.372L1701.36,646.703L1701.58,647.034L1701.79,647.365L1702.01,647.696L1702.23,648.026L1702.44,648.356L1702.67,648.685L1702.89,649.015L1703.11,649.343L1703.34,649.672L1703.56,649.999L1703.79,650.327L1704.02,650.654L1704.25,650.981L1704.48,651.307L1704.71,651.633L1704.94,651.958L1705.17,652.283L1705.41,652.608L1705.64,652.932L1705.88,653.255L1706.12,653.579L1706.36,653.901L1706.6,654.223L1706.84,654.545L1707.09,654.866L1707.33,655.187L1707.58,655.507L1707.82,655.827L1708.07,656.146L1708.32,656.465L1708.57,656.783L1708.82,657.101L1709.07,657.418L1709.32,657.735L1709.58,658.051L1709.83,658.366L1710.09,658.681L1710.35,658.996L1710.6,659.309L1710.86,659.623L1711.12,659.935L1711.38,660.247L1711.64,660.559L1711.91,660.87L1712.17,661.18L1712.44,661.49L1712.7,661.799L1712.97,662.107L1713.24,662.415L1713.51,662.722L1713.77,663.028L1714.05,663.334L1714.32,663.639L1714.59,663.944L1715.14,664.551L1715.69,665.156L1716.24,665.757L1716.8,666.356L1717.36,666.952L1717.92,667.545L1718.49,668.135L1719.06,668.722L1719.63,669.306L1720.21,669.887L1720.79,670.465L1721.37,671.04L1721.96,671.611L1722.55,672.18L1723.14,672.744L1723.73,673.306L1724.33,673.864L1724.93,674.419L1725.53,674.97L1726.13,675.517L1726.74,676.061L1727.35,676.601L1727.96,677.138L1728.57,677.671L1729.19,678.2L1729.81,678.725L1730.43,679.246L1731.05,679.763L1731.67,680.276L1732.3,680.786L1732.92,681.291L1733.55,681.792L1734.18,682.289L1734.82,682.781L1735.45,683.27L1736.09,683.754L1736.72,684.233L1737.36,684.708L1738,685.179L1738.64,685.645L1739.28,686.107L1739.93,686.564L1740.25,686.791L1740.57,687.017L1740.89,687.241L1741.22,687.464L1741.54,687.686L1741.86,687.907L1742.19,688.127L1742.51,688.345L1742.83,688.562L1743.16,688.779L1743.48,688.993L1743.81,689.207L1744.13,689.419L1744.46,689.63L1744.78,689.84L1745.11,690.049L1745.43,690.256L1745.76,690.462L1746.08,690.667L1746.41,690.871L1746.74,691.073L1747.06,691.274L1747.39,691.473L1747.72,691.672L1748.04,691.869L1748.37,692.064L1748.69,692.259L1749.02,692.452L1749.35,692.644L1749.67,692.834L1750,693.023L1750.33,693.211L1750.65,693.397L1750.98,693.582L1751.31,693.766L1751.64,693.948L1751.96,694.129L1752.29,694.309L1752.62,694.487L1752.94,694.663L1753.27,694.839L1753.6,695.013L1753.93,695.185L1754.25,695.356L1754.58,695.526L1754.91,695.694L1755.23,695.861L1755.56,696.026L1755.89,696.19L1756.21,696.352L1756.54,696.513L1756.87,696.673L1757.19,696.831L1757.52,696.987L1757.84,697.142L1758.17,697.296L1758.5,697.448L1758.82,697.599L1759.15,697.748L1759.47,697.895L1759.8,698.041L1760.12,698.186L1760.45,698.329L1760.77,698.47L1761.1,698.61L1761.42,698.748L1761.74,698.885L1762.07,699.02L1762.39,699.154L1762.71,699.286L1763.04,699.416L1763.36,699.545L1763.68,699.672L1764.01,699.798L1764.33,699.922L1764.65,700.045L1764.97,700.165L1765.29,700.285L1765.61,700.402L1765.93,700.518L1766.25,700.632L1766.57,700.745L1766.89,700.856L1767.21,700.966L1767.53,701.073L1767.85,701.179L1768.17,701.284L1768.49,701.386L1768.8,701.487L1769.12,701.587L1769.44,701.684L1769.75,701.78L1770.07,701.874L1770.38,701.967L1770.7,702.057L1771.01,702.146L1771.33,702.234L1771.64,702.319L1771.95,702.403L1772.27,702.485L1772.58,702.565L1772.89,702.644L1773.2,702.72L1773.51,702.795L1773.82,702.868L1774.13,702.94L1774.44,703.009L1774.75,703.077L1775.06,703.143L1775.37,703.207L1775.68,703.27L1775.98,703.33L1776.29,703.389L1776.6,703.446L1776.9,703.501L1777.2,703.554L1777.51,703.605L1777.81,703.654L1778.12,703.702L1778.42,703.748L1778.72,703.792L1779.02,703.833L1779.32,703.873L1779.62,703.912L1779.92,703.948L1780.22,703.982L1780.52,704.015L1780.81,704.045L1781.11,704.074L1781.4,704.1L1781.7,704.125L1781.99,704.148L1782.29,704.169L1782.58,704.187L1782.87,704.204L1783.16,704.219L1783.46,704.232L1783.75,704.243L1784.04,704.252L1784.32,704.259L1784.61,704.264L1784.9,704.267L1785.18,704.268L1785.47,704.267L1785.76,704.264L1786.04,704.259L1786.32,704.252L1786.61,704.242L1786.89,704.231L1787.17,704.218L1787.45,704.203L1787.73,704.185L1788,704.166L1788.28,704.144L1788.56,704.121L1788.83,704.095L1789.11,704.067L1789.38,704.037L1789.66,704.005L1789.93,703.971L1790.2,703.935L1790.47,703.897L1790.74,703.856L1791.01,703.814L1791.27,703.769L1791.54,703.722L1791.81,703.673L1792.07,703.622L1792.34,703.568L1792.6,703.513L1792.86,703.455L1793.12,703.395L1793.38,703.333L1793.64,703.269L1793.9,703.202L1794.15,703.134L1794.41,703.063L1794.66,702.99L1794.92,702.914L1795.17,702.837L1795.42,702.757L1795.67,702.675L1795.92,702.591L1796.17,702.504L1796.42,702.415L1796.66,702.324L1796.91,702.231L1797.15,702.135L1797.39,702.037L1797.64,701.937L1797.88,701.835L1798.12,701.73L1798.36,701.623L1798.59,701.513L1798.83,701.401L1799.06,701.287L1799.3,701.171L1799.53,701.052L1799.76,700.931L1799.99,700.808L1800.22,700.682L1800.45,700.554L1800.67,700.423L1800.9,700.291L1801.12,700.155L1801.35,700.018L1801.57,699.878L1801.79,699.735L1802.01,699.59L1802.23,699.443L1802.44,699.294L1802.66,699.141L1802.87,698.987L1803.09,698.83L1803.3,698.671L1803.51,698.509L1803.72,698.345L1803.92,698.178L1804.13,698.009L1804.33,697.837L1804.54,697.663L1804.74,697.486L1804.94,697.307L1805.14,697.126L1805.34,696.942L1805.53,696.755L1805.73,696.566L1805.92,696.374L1806.12,696.18L1806.31,695.984L1806.5,695.784L1806.68,695.583L1806.87,695.378L1807.06,695.172L1807.24,694.962L1807.42,694.75L1807.6,694.536L1807.78,694.319L1807.96,694.099L1808.14,693.877L1808.31,693.652L1808.49,693.425L1808.66,693.194L1808.83,692.962L1809,692.727L1809.16,692.489L1809.33,692.248L1809.49,692.005L1809.66,691.759L1809.82,691.511L1809.98,691.26L1810.13,691.006L1810.29,690.749L1810.45,690.49L1810.6,690.229L1810.75,689.964L1810.9,689.697L1811.05,689.427L1811.2,689.155L1811.34,688.879L1811.49,688.601L1811.63,688.321L1811.77,688.037L1811.91,687.751L1812.04,687.462L1812.18,687.171L1812.31,686.877L1812.44,686.579L1812.57,686.28L1812.7,685.977L1812.83,685.672L1812.95,685.363L1813.08,685.052L1813.2,684.739L1813.32,684.422L1813.44,684.103L1813.55,683.781L1813.67,683.456L1813.78,683.128L1813.89,682.797L1814,682.464L1814.11,682.128L1814.21,681.789L1814.32,681.447L1814.42,681.102L1814.52,680.754L1814.62,680.404L1814.71,680.05L1814.81,679.694L1814.9,679.335L1814.99,678.973L1815.08,678.608L1815.17,678.24L1815.25,677.869L1815.34,677.495L1815.42,677.119L1815.5,676.739L1815.58,676.357L1815.65,675.971L1815.72,675.583L1815.8,675.192L1815.87,674.797L1815.93,674.4L1816,674L1816.06,673.599L1816.12,673.201L1816.18,672.804L1816.23,672.409L1816.28,672.016L1816.33,671.625L1816.37,671.236L1816.41,670.849L1816.45,670.464L1816.48,670.081L1816.51,669.7L1816.54,669.321L1816.56,668.943L1816.58,668.568L1816.6,668.194L1816.61,667.822L1816.62,667.453L1816.63,667.085L1816.64,666.719L1816.64,666.355L1816.64,665.992L1816.63,665.632L1816.62,665.273L1816.61,664.917L1816.6,664.562L1816.58,664.209L1816.56,663.858L1816.54,663.509L1816.51,663.161L1816.48,662.816L1816.45,662.472L1816.41,662.13L1816.37,661.79L1816.33,661.452L1816.29,661.116L1816.24,660.781L1816.19,660.448L1816.14,660.117L1816.08,659.788L1816.02,659.46L1815.96,659.135L1815.89,658.811L1815.83,658.489L1815.76,658.168L1815.68,657.85L1815.61,657.533L1815.53,657.218L1815.45,656.905L1815.36,656.593L1815.28,656.283L1815.18,655.975L1815.09,655.669L1815,655.365L1814.9,655.062L1814.8,654.761L1814.69,654.461L1814.59,654.163L1814.48,653.867L1814.37,653.573L1814.25,653.28L1814.14,652.99L1814.02,652.7L1813.89,652.413L1813.77,652.127L1813.64,651.843L1813.51,651.56L1813.38,651.279L1813.25,651L1813.11,650.723L1812.97,650.447L1812.83,650.172L1812.68,649.9L1812.53,649.629L1812.38,649.359L1812.23,649.092L1812.08,648.826L1811.92,648.561L1811.76,648.298L1811.6,648.037L1811.43,647.778L1811.27,647.519L1811.1,647.263L1810.93,647.008L1810.75,646.755L1810.58,646.503L1810.4,646.253L1810.22,646.005L1810.04,645.758L1809.85,645.512L1809.66,645.268L1809.47,645.026L1809.28,644.785L1809.09,644.546L1808.89,644.308L1808.69,644.072L1808.49,643.838L1808.29,643.605L1808.08,643.373L1807.88,643.143L1807.67,642.915L1807.45,642.688L1807.24,642.462L1807.03,642.238L1806.81,642.016L1806.59,641.795L1806.37,641.575L1806.14,641.357L1805.92,641.14L1805.69,640.925L1805.46,640.712L1805.23,640.499L1804.99,640.289L1804.76,640.079L1804.52,639.872L1804.28,639.665L1804.04,639.46L1803.79,639.257L1803.55,639.055L1803.3,638.854L1803.05,638.655L1802.8,638.457L1802.55,638.26L1802.29,638.065L1802.04,637.872L1801.78,637.679L1801.52,637.489L1801.26,637.299L1800.99,637.111L1800.73,636.924L1800.46,636.739L1800.19,636.555L1799.92,636.373L1799.65,636.191L1799.37,636.012L1799.1,635.833L1798.82,635.656L1798.54,635.48L1798.26,635.306L1797.98,635.132L1797.69,634.961L1797.41,634.79L1797.12,634.621L1796.83,634.453L1796.54,634.286L1796.25,634.121L1795.95,633.957L1795.66,633.794L1795.36,633.633L1795.07,633.473L1794.77,633.314L1794.46,633.157L1794.16,633L1793.86,632.845L1793.55,632.692L1793.25,632.539L1792.94,632.388L1792.63,632.238L1792.32,632.089L1792,631.942L1791.69,631.795L1791.38,631.65L1791.06,631.506L1790.74,631.364L1790.42,631.222L1790.1,631.082L1789.78,630.943L1789.46,630.805L1789.13,630.669L1788.81,630.534L1788.48,630.399L1788.15,630.266L1787.82,630.134L1787.49,630.004L1787.16,629.874L1786.83,629.746L1786.5,629.619L1786.16,629.493L1785.82,629.368L1785.49,629.244L1785.15,629.122L1784.81,629L1784.47,628.88L1784.13,628.761L1783.78,628.643L1783.44,628.526L1783.1,628.41L1782.75,628.295L1782.4,628.182L1782.06,628.069L1781.71,627.958L1781.36,627.847L1781.01,627.738L1780.65,627.63L1780.3,627.523L1779.95,627.417L1779.6,627.312L1779.24,627.208L1778.88,627.105L1778.53,627.004L1778.17,626.903L1777.81,626.803L1777.45,626.705L1777.09,626.607L1776.73,626.51L1776.37,626.415L1776,626.32L1775.64,626.227L1775.28,626.134L1774.91,626.043L1774.55,625.952L1774.18,625.863L1773.81,625.774L1773.44,625.687L1773.08,625.6L1772.34,625.43L1771.6,625.264L1770.85,625.102L1770.11,624.943L1769.36,624.788L1768.61,624.637L1767.85,624.49L1767.1,624.346L1766.34,624.206L1765.58,624.069L1764.82,623.936L1764.06,623.807L1763.3,623.681L1762.54,623.558L1761.77,623.439L1761,623.323L1760.24,623.211L1759.47,623.102L1758.7,622.996L1757.93,622.893L1757.16,622.793L1756.39,622.697L1755.62,622.603L1754.85,622.513L1754.07,622.426L1753.3,622.342L1752.53,622.26L1751.76,622.182L1750.99,622.107L1750.21,622.034L1749.44,621.964L1748.67,621.897L1747.9,621.833L1747.13,621.771L1746.37,621.712L1745.6,621.656L1744.83,621.602L1744.07,621.55L1743.3,621.502L1742.54,621.455L1741.78,621.412L1741.02,621.37L1740.26,621.331L1739.5,621.294L1738.75,621.26L1738,621.227L1737.25,621.197L1736.5,621.17L1735.75,621.144L1735.01,621.12L1734.27,621.099L1733.53,621.079L1732.79,621.062L1732.06,621.046L1731.33,621.032L1730.6,621.021L1729.88,621.011L1729.15,621.003L1728.44,620.996L1727.72,620.991L1727.01,620.989L1726.3,620.987L1725.6,620.988Z" style="fill:rgb(26,26,26);"/>
                    <path d="M1690,623C1690,623 1827.09,605.449 1816,674C1804.91,742.551 1707.92,681.185 1690,623Z" style="fill:white;"/>
                </g>
                <path d="M1753.32,654.179C1800.63,663.171 1812,690 1812,690" style="fill:none;stroke:rgb(26,26,26);stroke-width:10.37px;"/>
            </g>
        </g>
    </g>
</svg>
